<svg xmlns="http://www.w3.org/2000/svg" width="960" height="540" viewBox="0 0 960 540" font-family="ui-sans-serif,system-ui,Segoe UI,Roboto,sans-serif">
  <defs>
    <linearGradient id="acc" x1="0" y1="0" x2="1" y2="1">
      <stop offset="0" stop-color="#a06bff"/><stop offset="1" stop-color="#6be0ff"/>
    </linearGradient>
    <radialGradient id="glow" cx="0.15" cy="0" r="1">
      <stop offset="0" stop-color="#a06bff" stop-opacity="0.16"/><stop offset="0.6" stop-color="#0a0813" stop-opacity="0"/>
    </radialGradient>
  </defs>
  <rect width="960" height="540" rx="14" fill="#0a0813"/>
  <rect width="960" height="540" rx="14" fill="url(#glow)"/>
  <!-- sidebar -->
  <rect x="0" y="0" width="200" height="540" fill="#13101f"/>
  <path d="M28 22 40 28v8c0 7.5-5 11.5-12 13-7-1.5-12-5.5-12-13v-8l12-6z" fill="none" stroke="url(#acc)" stroke-width="2.4" transform="translate(0,-2)"/>
  <text x="52" y="34" fill="url(#acc)" font-size="15" font-weight="800" letter-spacing="4">AEGIS</text>
  <text x="52" y="47" fill="#6f6890" font-size="8.5">control panel</text>
  <g font-size="12" fill="#9a93b8">
    <rect x="10" y="66" width="180" height="28" rx="7" fill="#221c33"/>
    <rect x="10" y="66" width="3" height="28" rx="1.5" fill="#a06bff"/>
    <text x="40" y="84" fill="#ece8f8" font-weight="600">Overview</text>
    <text x="40" y="116">Chat</text>
    <text x="40" y="142">Live activity</text>
    <text x="20" y="172" font-size="9" fill="#564f78" letter-spacing="1.5">AGENT</text>
    <text x="40" y="196">Sessions</text>
    <text x="40" y="222">Memory</text>
    <text x="40" y="248">Skills</text>
    <text x="40" y="274">Tools</text>
    <text x="20" y="304" font-size="9" fill="#564f78" letter-spacing="1.5">AUTOMATION</text>
    <text x="40" y="328">Kanban</text>
    <text x="40" y="354">Schedules</text>
    <text x="40" y="380">Webhooks</text>
    <text x="20" y="410" font-size="9" fill="#564f78" letter-spacing="1.5">OPERATIONS</text>
    <text x="40" y="434">Analytics</text>
    <text x="40" y="460">System</text>
  </g>
  <circle cx="22" cy="508" r="4" fill="#4ade80"/>
  <text x="34" y="512" fill="#9a93b8" font-size="10.5">v0.1.0 · anthropic / claude-sonnet-4-6</text>
  <!-- topbar -->
  <rect x="200" y="0" width="760" height="52" fill="#13101f" opacity="0.7"/>
  <text x="226" y="32" fill="#ece8f8" font-size="14" font-weight="650">Overview</text>
  <rect x="742" y="14" width="120" height="26" rx="7" fill="#16131f" stroke="#27213b"/>
  <text x="756" y="31" fill="#6f6890" font-size="11">Search</text>
  <rect x="816" y="19" width="38" height="16" rx="4" fill="none" stroke="#332b4e"/>
  <text x="822" y="31" fill="#9a93b8" font-size="9" font-family="monospace">Ctrl K</text>
  <circle cx="898" cy="27" r="13" fill="#16131f" stroke="#27213b"/>
  <circle cx="898" cy="27" r="5" fill="none" stroke="#9a93b8" stroke-width="1.6"/>
  <!-- stat tiles -->
  <g>
    <rect x="226" y="76" width="166" height="86" rx="11" fill="#13101f" stroke="#27213b"/>
    <text x="244" y="102" fill="#6f6890" font-size="9.5" letter-spacing="1.2">SESSIONS</text>
    <text x="244" y="134" fill="#ece8f8" font-size="26" font-weight="700">128</text>
    <rect x="406" y="76" width="166" height="86" rx="11" fill="#13101f" stroke="#27213b"/>
    <text x="424" y="102" fill="#6f6890" font-size="9.5" letter-spacing="1.2">SKILLS</text>
    <text x="424" y="134" fill="#ece8f8" font-size="26" font-weight="700">26</text>
    <text x="424" y="152" fill="#9a93b8" font-size="10">self-improving library</text>
    <rect x="586" y="76" width="166" height="86" rx="11" fill="#13101f" stroke="#27213b"/>
    <text x="604" y="102" fill="#6f6890" font-size="9.5" letter-spacing="1.2">TOOLS</text>
    <text x="604" y="134" fill="#ece8f8" font-size="26" font-weight="700">34</text>
    <text x="604" y="152" fill="#9a93b8" font-size="10">exec: auto</text>
    <rect x="766" y="76" width="166" height="86" rx="11" fill="#13101f" stroke="#27213b"/>
    <text x="784" y="102" fill="#6f6890" font-size="9.5" letter-spacing="1.2">SPEND / 30D</text>
    <text x="784" y="134" fill="#ece8f8" font-size="26" font-weight="700">$4.21</text>
    <text x="784" y="152" fill="#9a93b8" font-size="10">312 calls</text>
  </g>
  <!-- chart card -->
  <rect x="226" y="180" width="346" height="200" rx="11" fill="#13101f" stroke="#27213b"/>
  <text x="244" y="206" fill="#6f6890" font-size="9.5" letter-spacing="1.2">SPEND — LAST 30 DAYS</text>
  <g fill="#a06bff" opacity="0.8">
    <rect x="248" y="330" width="8" height="24" rx="1.5"/><rect x="259" y="318" width="8" height="36" rx="1.5"/>
    <rect x="270" y="336" width="8" height="18" rx="1.5"/><rect x="281" y="300" width="8" height="54" rx="1.5"/>
    <rect x="292" y="312" width="8" height="42" rx="1.5"/><rect x="303" y="288" width="8" height="66" rx="1.5"/>
    <rect x="314" y="326" width="8" height="28" rx="1.5"/><rect x="325" y="306" width="8" height="48" rx="1.5"/>
    <rect x="336" y="276" width="8" height="78" rx="1.5"/><rect x="347" y="296" width="8" height="58" rx="1.5"/>
    <rect x="358" y="322" width="8" height="32" rx="1.5"/><rect x="369" y="282" width="8" height="72" rx="1.5"/>
    <rect x="380" y="252" width="8" height="102" rx="1.5" fill="url(#acc)"/>
    <rect x="391" y="292" width="8" height="62" rx="1.5"/><rect x="402" y="308" width="8" height="46" rx="1.5"/>
    <rect x="413" y="284" width="8" height="70" rx="1.5"/><rect x="424" y="318" width="8" height="36" rx="1.5"/>
    <rect x="435" y="270" width="8" height="84" rx="1.5"/><rect x="446" y="300" width="8" height="54" rx="1.5"/>
    <rect x="457" y="312" width="8" height="42" rx="1.5"/><rect x="468" y="262" width="8" height="92" rx="1.5"/>
    <rect x="479" y="296" width="8" height="58" rx="1.5"/><rect x="490" y="328" width="8" height="26" rx="1.5"/>
    <rect x="501" y="286" width="8" height="68" rx="1.5"/><rect x="512" y="306" width="8" height="48" rx="1.5"/>
    <rect x="523" y="274" width="8" height="80" rx="1.5"/><rect x="534" y="316" width="8" height="38" rx="1.5"/>
    <rect x="545" y="290" width="8" height="64" rx="1.5"/>
  </g>
  <!-- recent sessions card -->
  <rect x="586" y="180" width="346" height="200" rx="11" fill="#13101f" stroke="#27213b"/>
  <text x="604" y="206" fill="#6f6890" font-size="9.5" letter-spacing="1.2">RECENT SESSIONS</text>
  <g font-size="11.5" fill="#ece8f8">
    <text x="604" y="232">Refactor the gateway delivery queue</text>
    <text x="604" y="262">Research: MCP server registries</text>
    <text x="604" y="292">Fix flaky kanban test</text>
    <text x="604" y="322">Plan the v0.2 release</text>
    <text x="604" y="352">Summarize today's commits</text>
  </g>
  <g font-size="9.5" fill="#6f6890" text-anchor="end">
    <text x="914" y="232">14:02</text><text x="914" y="262">11:40</text>
    <text x="914" y="292">09:15</text><text x="914" y="322">yesterday</text><text x="914" y="352">yesterday</text>
  </g>
  <g stroke="#27213b"><path d="M604 242h310M604 272h310M604 302h310M604 332h310"/></g>
  <!-- live feed strip -->
  <rect x="226" y="398" width="706" height="116" rx="11" fill="#13101f" stroke="#27213b"/>
  <text x="244" y="424" fill="#6f6890" font-size="9.5" letter-spacing="1.2">LIVE ACTIVITY</text>
  <g font-size="11" font-family="ui-monospace,Menlo,monospace">
    <text x="244" y="448" fill="#6be0ff">tool_start</text><text x="330" y="448" fill="#9a93b8">bash — pytest -q tests/</text>
    <text x="244" y="472" fill="#4ade80">tool_result</text><text x="330" y="472" fill="#9a93b8">349 passed in 39.8s</text>
    <text x="244" y="496" fill="#a06bff">process_done</text><text x="330" y="496" fill="#9a93b8">proc_8d1 exited (code 0): npm run build</text>
  </g>
</svg>
