<svg xmlns="http://www.w3.org/2000/svg" width="1120" height="660" viewBox="0 0 1120 660" role="img" aria-label="AEGIS architecture map">
  <defs>
    <linearGradient id="bg" x1="0" y1="0" x2="1120" y2="660" gradientUnits="userSpaceOnUse">
      <stop offset="0" stop-color="#191b20"/>
      <stop offset="1" stop-color="#121317"/>
    </linearGradient>
    <linearGradient id="accent" x1="0" y1="0" x2="1120" y2="0" gradientUnits="userSpaceOnUse">
      <stop offset="0" stop-color="#d6a15e"/>
      <stop offset="0.55" stop-color="#7ecf8f"/>
      <stop offset="1" stop-color="#6fb7d8"/>
    </linearGradient>
    <marker id="arr" markerWidth="9" markerHeight="9" refX="7" refY="4.5" orient="auto">
      <path d="M0 0 9 4.5 0 9z" fill="#8f968f"/>
    </marker>
    <style>
      .title{font:800 33px Inter,ui-sans-serif,Segoe UI,sans-serif;fill:#f3f1e8}
      .sub{font:500 15px Inter,ui-sans-serif,Segoe UI,sans-serif;fill:#8f968f}
      .h{font:700 16px Inter,ui-sans-serif,Segoe UI,sans-serif;fill:#d6a15e}
      .hc{font:700 16px Inter,ui-sans-serif,Segoe UI,sans-serif;fill:#f3f1e8}
      .p{font:500 13px Inter,ui-sans-serif,Segoe UI,sans-serif;fill:#b9c0bb}
      .mono{font:600 12.5px ui-monospace,Menlo,Consolas,monospace;fill:#7ecf8f}
      .box{fill:#22252c;stroke:#3a3f47;stroke-width:1.2}
      .core{fill:#262a31;stroke:url(#accent);stroke-width:2}
      .pill{fill:#1b1d22;stroke:#4a5159}
      .link{stroke:#8f968f;stroke-width:1.7;fill:none;marker-end:url(#arr)}
    </style>
  </defs>
  <rect width="1120" height="660" rx="22" fill="url(#bg)"/>
  <rect x="2" y="2" width="1116" height="656" rx="21" fill="none" stroke="#2b2f36"/>
  <text x="56" y="62" class="title">AEGIS architecture</text>
  <text x="56" y="90" class="sub">One agent loop. Many surfaces. Shared safety, shared state — all on your machine.</text>

  <!-- Surfaces -->
  <rect x="56" y="126" width="264" height="438" rx="16" class="box"/>
  <text x="82" y="160" class="h">Surfaces</text>
  <text x="82" y="190" class="p">Full-screen Node/Ink terminal</text>
  <text x="82" y="212" class="p">React dashboard · Electron desktop</text>
  <text x="82" y="234" class="p">OpenAI-compatible API · JSON-RPC</text>
  <text x="82" y="256" class="p">Python SDK · ACP · MCP server</text>
  <text x="82" y="278" class="p">Gateway: Telegram, Discord, Slack,</text>
  <text x="82" y="296" class="p">Signal, Matrix, Mattermost, Email…</text>
  <text x="82" y="318" class="p">Cron, kanban, webhooks, watchers</text>
  <path d="M82 344h212" stroke="#3a3f47"/>
  <text x="82" y="378" class="mono">aegis</text>
  <text x="82" y="406" class="mono">aegis ui</text>
  <text x="82" y="434" class="mono">aegis serve</text>
  <text x="82" y="462" class="mono">aegis gateway</text>
  <text x="82" y="490" class="mono">aegis cron · aegis mcp</text>

  <!-- Core -->
  <rect x="404" y="118" width="312" height="92" rx="16" class="core"/>
  <text x="430" y="152" class="hc">SurfaceRunner</text>
  <text x="430" y="178" class="p">Normalizes messages, sessions, events,</text>
  <text x="430" y="196" class="p">context refs, controls, and tracing.</text>

  <rect x="384" y="248" width="352" height="158" rx="18" class="core"/>
  <text x="412" y="284" class="hc">Agent.run</text>
  <text x="412" y="310" class="p">Bounded loop: governance, compaction,</text>
  <text x="412" y="328" class="p">prompt caching, cost caps, routing.</text>
  <rect x="408" y="350" width="142" height="30" rx="15" class="pill"/>
  <text x="430" y="370" class="mono">context build</text>
  <rect x="566" y="350" width="150" height="30" rx="15" class="pill"/>
  <text x="588" y="370" class="mono">tool execution</text>

  <rect x="372" y="452" width="168" height="106" rx="14" class="box"/>
  <text x="398" y="486" class="h">Providers</text>
  <text x="398" y="514" class="p">Anthropic, OpenAI, Gemini,</text>
  <text x="398" y="532" class="p">OpenRouter, local, +more</text>
  <text x="398" y="550" class="p">keys · OAuth · pools · fallback</text>

  <rect x="580" y="452" width="156" height="106" rx="14" class="box"/>
  <text x="606" y="486" class="h">Permission gate</text>
  <text x="606" y="514" class="p">Hardline blocklist</text>
  <text x="606" y="532" class="p">scan · approval</text>
  <text x="606" y="550" class="p">sandbox · provenance</text>

  <!-- Execution & state -->
  <rect x="800" y="126" width="264" height="438" rx="16" class="box"/>
  <text x="826" y="160" class="h">Execution &amp; state</text>
  <text x="826" y="190" class="p">106 tools · ~22 live, rest deferred</text>
  <text x="826" y="212" class="p">files, shell, browser, LSP, process,</text>
  <text x="826" y="230" class="p">code exec, repo map, image, vision</text>
  <text x="826" y="252" class="p">MCP &amp; plugin tools · subagents</text>
  <text x="826" y="274" class="p">Local · Docker · SSH · Modal</text>
  <path d="M826 300h212" stroke="#3a3f47"/>
  <text x="826" y="332" class="p">Sessions, traces, evals, trajectories</text>
  <text x="826" y="358" class="p">Memory (4 backends) · 70+ skills</text>
  <text x="826" y="384" class="p">Curator · learning loop · recall</text>
  <text x="826" y="410" class="p">Cron, kanban, gateway queue</text>
  <text x="826" y="436" class="p">Cost analytics · snapshots · backups</text>
  <path d="M826 460h212" stroke="#3a3f47"/>
  <text x="826" y="494" class="mono">~/.aegis</text>
  <text x="826" y="520" class="mono">config · auth · sessions · memory</text>

  <!-- links -->
  <path d="M320 322C360 322 364 164 404 164" class="link"/>
  <path d="M560 210v38" class="link"/>
  <path d="M474 406v46" class="link"/>
  <path d="M656 406v46" class="link"/>
  <path d="M736 300C772 300 768 322 800 322" class="link"/>

  <rect x="210" y="600" width="700" height="34" rx="17" fill="#22252c" stroke="#3a3f47"/>
  <text x="244" y="622" class="mono">Same context rules · same providers · same permissions · same durable state — every entry point.</text>
</svg>
